<?xml version="1.0" standalone="no"?>
<!DOCTYPE svg PUBLIC "-//W3C//DTD SVG 20010904//EN"
 "http://www.w3.org/TR/2001/REC-SVG-20010904/DTD/svg10.dtd">
<svg version="1.0" xmlns="http://www.w3.org/2000/svg"
 width="256.000000pt" height="256.000000pt" viewBox="0 0 256.000000 256.000000"
 preserveAspectRatio="xMidYMid meet">
<metadata>
Created by potrace 1.14, written by Peter Selinger 2001-2017
</metadata>
<g transform="translate(0.000000,256.000000) scale(0.100000,-0.100000)"
fill="#000000" stroke="none">
<path d="M740 2246 c-135 -31 -272 -98 -373 -181 -139 -115 -255 -301 -297
-475 -27 -117 -27 -293 0 -410 42 -175 158 -360 297 -475 75 -63 236 -146 328
-171 88 -24 322 -30 405 -11 l65 15 85 -48 c189 -109 383 -144 560 -102 47 11
132 39 190 61 84 33 122 54 190 109 94 76 186 185 230 271 15 31 43 103 61
161 30 95 34 116 33 220 -1 157 -35 280 -119 430 -40 71 -107 113 -208 131
-89 15 -246 0 -366 -35 l-80 -23 -30 62 c-67 135 -213 290 -348 370 -43 25
-121 60 -173 77 -87 29 -108 32 -245 34 -96 2 -170 -2 -205 -10z"/>
</g>
</svg>
